Coordinates
version=1
nRows=65
nColumns=12
inDegrees=yes

Units are S.I. units (second, meters, Newtons, ...)
Angles are in degrees

endheader
time	SC_y	SC_z	SC_x	AC_y	AC_z	AC_x	GH_y	GH_z	GH_yy	EL_x	PS_y
       0.0              -55.31          7.479          1.471          66.39         -15.34          19.68         -48.65          27.33         -52.93          78.34          157.2
   0.02081              -55.31          7.479           1.48          66.39         -15.34          19.68         -48.64          27.33          -52.9          78.34          157.2
   0.04162              -55.31          7.479           1.49          66.38         -15.34          19.67         -48.62          27.34         -52.87          78.35          157.2
   0.06243               -55.3          7.479          1.501          66.37         -15.34          19.67         -48.59          27.34         -52.83          78.35          157.2
   0.08324               -55.3          7.479          1.512          66.37         -15.34          19.67         -48.57          27.34          -52.8          78.36          157.2
     0.104               -55.3          7.479          1.524          66.36         -15.34          19.66         -48.55          27.35         -52.76          78.36          157.2
    0.1249               -55.3          7.479          1.537          66.35         -15.34          19.66         -48.52          27.35         -52.72          78.36          157.2
    0.1457              -55.29          7.479          1.551          66.35         -15.34          19.66          -48.5          27.35         -52.67          78.37          157.2
    0.1665              -55.29          7.479          1.565          66.34         -15.34          19.65         -48.47          27.36         -52.63          78.37          157.1
    0.1873              -55.29          7.479          1.581          66.33         -15.34          19.65         -48.43          27.36         -52.58          78.38          157.1
    0.2081              -55.28          7.479          1.598          66.32         -15.34          19.64          -48.4          27.37         -52.52          78.38          157.1
    0.2289              -55.28          7.479          1.617          66.31         -15.34          19.64         -48.36          27.37         -52.46          78.39          157.1
    0.2497              -55.27          7.479          1.636           66.3         -15.34          19.63         -48.32          27.38          -52.4           78.4          157.1
    0.2705              -55.27          7.479          1.658          66.29         -15.34          19.63         -48.28          27.38         -52.33           78.4          157.1
    0.2913              -55.26          7.479          1.681          66.27         -15.34          19.62         -48.24          27.39         -52.26          78.41          157.1
    0.3121              -55.26           7.48          1.706          66.26         -15.34          19.61         -48.19          27.39         -52.18          78.42          157.1
     0.333              -55.25           7.48          1.733          66.25         -15.34           19.6         -48.13           27.4         -52.09          78.43          157.1
    0.3538              -55.25           7.48          1.762          66.23         -15.35           19.6         -48.07          27.41          -52.0          78.44          157.1
    0.3746              -55.24           7.48          1.795          66.21         -15.35          19.59         -48.01          27.42         -51.89          78.45          157.1
    0.3954              -55.23           7.48           1.83          66.19         -15.35          19.58         -47.94          27.43         -51.78          78.46          157.1
    0.4162              -55.22           7.48          1.869          66.17         -15.35          19.57         -47.86          27.44         -51.66          78.48          157.1
     0.437              -55.21           7.48          1.912          66.15         -15.35          19.55         -47.78          27.45         -51.52          78.49          157.1
    0.4578               -55.2           7.48          1.959          66.12         -15.35          19.54         -47.68          27.46         -51.37          78.51          157.1
    0.4786              -55.19           7.48          2.011          66.09         -15.35          19.53         -47.58          27.48          -51.2          78.52          157.1
    0.4994              -55.18           7.48           2.07          66.06         -15.35          19.51         -47.46          27.49         -51.02          78.54          157.0
    0.5202              -55.17           7.48          2.134          66.02         -15.35          19.49         -47.33          27.51         -50.81          78.56          157.0
    0.5411              -55.15           7.48          2.207          65.98         -15.35          19.47         -47.19          27.53         -50.58          78.59          157.0
    0.5619              -55.13           7.48          2.289          65.94         -15.36          19.45         -47.03          27.55         -50.32          78.62          157.0
    0.5827              -55.11           7.48          2.382          65.89         -15.36          19.42         -46.84          27.58         -50.02          78.65          157.0
    0.6035              -55.09           7.48          2.486          65.83         -15.36          19.39         -46.63           27.6         -49.69          78.68          157.0
    0.6243              -55.06           7.48          2.606          65.76         -15.36          19.36          -46.4          27.64          -49.3          78.72          156.9
    0.6451              -55.03           7.48          2.744          65.69         -15.36          19.32         -46.12          27.67         -48.86          78.77          156.9
    0.6659               -55.0           7.48          2.903           65.6         -15.37          19.27         -45.81          27.72         -48.36          78.82          156.9
    0.6867              -54.96           7.48          3.087           65.5         -15.37          19.22         -45.44          27.77         -47.77          78.89          156.8
    0.7075              -54.91           7.48          3.303          65.38         -15.37          19.16         -45.01          27.82         -47.08          78.96          156.8
    0.7283              -54.86           7.48          3.557          65.24         -15.38          19.09         -44.51          27.89         -46.27          79.04          156.7
    0.7492              -54.79          7.481           3.86          65.07         -15.38           19.0          -43.9          27.97          -45.3          79.15          156.7
      0.77              -54.71          7.481          4.222          64.87         -15.39           18.9         -43.18          28.07         -44.14          79.27          156.6
    0.7908              -54.62          7.481          4.661          64.62          -15.4          18.78         -42.31          28.19         -42.74          79.41          156.5
    0.8116               -54.5          7.481          5.196          64.33         -15.41          18.63         -41.25          28.33         -41.03           79.6          156.4
    0.8324              -54.36          7.482          5.858          63.96         -15.42          18.44         -39.93          28.51         -38.92          79.82          156.2
    0.8532              -54.18          7.482          6.682          63.51         -15.44          18.21         -38.29          28.73         -36.29          80.09          156.1
     0.874              -53.95          7.483          7.721          62.93         -15.45          17.92         -36.23          29.01         -32.97          80.44          155.8
    0.8948              -53.67          7.483          9.041           62.2         -15.48          17.54          -33.6          29.37         -28.75          80.89          155.6
    0.9156               -53.3          7.484          10.73          61.27         -15.51          17.07         -30.24          29.82         -23.36          81.46          155.2
    0.9364              -52.83          7.485           12.9          60.06         -15.55          16.46         -25.93           30.4         -16.43          82.19          154.7
    0.9573              -52.23          7.487          15.67          58.53          -15.6          15.68         -20.42          31.15         -7.586          83.12          154.1
    0.9781              -51.47          7.488          19.15           56.6         -15.66           14.7          -13.5          32.08          3.537          84.29          153.4
    0.9989              -50.55           7.49           23.4          54.25         -15.74           13.5         -5.059          33.22          17.09          85.72          152.5
      1.02              -49.48          7.493          28.32          51.53         -15.83          12.11          4.723          34.54           32.8          87.37          151.5
      1.04              -48.33          7.496          33.64          48.58         -15.93          10.61          15.32          35.98          49.82          89.17          150.3
     1.061              -47.17          7.498          38.97          45.63         -16.03           9.11          25.91          37.41          66.83          90.96          149.2
     1.082              -46.11          7.501          43.89          42.91         -16.12          7.724          35.69          38.73          82.54          92.61          148.1
     1.103              -45.18          7.503          48.14          40.56         -16.19          6.528          44.13          39.87           96.1          94.04          147.2
     1.124              -44.43          7.505          51.62          38.63         -16.26          5.546          51.05          40.81          107.2          95.21          146.5
     1.145              -43.83          7.506          54.39           37.1         -16.31          4.766          56.56          41.55          116.1          96.15          145.9
     1.165              -43.36          7.507          56.56           35.9         -16.35          4.155          60.87          42.13          123.0          96.88          145.4
     1.186              -42.99          7.508          58.25          34.96         -16.38          3.678          64.23          42.59          128.4          97.44          145.1
     1.207               -42.7          7.509          59.57          34.23          -16.4          3.306          66.86          42.94          132.6          97.89          144.8
     1.228              -42.48          7.509          60.61          33.66         -16.42          3.014          68.92          43.22          135.9          98.24          144.6
     1.249               -42.3          7.509          61.43           33.2         -16.44          2.781          70.56          43.44          138.6          98.51          144.4
     1.269              -42.16           7.51          62.09          32.84         -16.45          2.595          71.88          43.62          140.7          98.74          144.3
      1.29              -42.04           7.51          62.63          32.54         -16.46          2.444          72.94          43.76          142.4          98.92          144.1
     1.311              -41.94           7.51          63.07           32.3         -16.47           2.32          73.81          43.88          143.8          99.06          144.1
     1.332              -41.87           7.51          63.43           32.1         -16.47          2.218          74.53          43.98          144.9          99.19          144.0
